<svg width="502" height="386" viewBox="0 0 502 386" fill="none" xmlns="http://www.w3.org/2000/svg">
<g clip-path="url(#clip0_85_889)">
<path d="M498.102 308.489H445.321C449.176 292.796 451.221 276.394 451.221 259.517C451.221 225.97 443.143 194.306 428.822 166.349H466.254C468.408 166.349 470.152 164.61 470.152 162.462C470.152 160.317 468.408 158.575 466.254 158.575H424.624C389.297 96.3845 322.336 54.4131 245.543 54.4131C194.466 54.4131 147.74 72.9824 111.776 103.718H48.4405C46.2891 103.718 44.543 105.459 44.543 107.605C44.543 109.75 46.2891 111.491 48.4405 111.491H103.179C98.8076 115.673 94.6228 120.046 90.6339 124.595H3.89752C1.74609 124.595 0 126.334 0 128.482C0 130.629 1.74609 132.368 3.89752 132.368H84.1507C56.4227 167.321 39.866 211.489 39.866 259.517C39.866 286.393 45.0531 312.063 54.4784 335.585H44.209C42.0575 335.585 40.3114 337.324 40.3114 339.471C40.3114 341.619 42.0575 343.358 44.209 343.358H57.7812C59.1999 346.509 60.6943 349.621 62.2645 352.686H16.1469C13.9932 352.686 12.2493 354.425 12.2493 356.572C12.2493 358.72 13.9932 360.459 16.1469 360.459H66.4604C71.2666 368.921 76.6586 377.01 82.5828 384.667H408.504C419.575 370.353 428.791 354.538 435.796 337.583H474.049C476.203 337.583 477.947 335.844 477.947 333.697C477.947 331.549 476.203 329.81 474.049 329.81H438.82C440.446 325.364 441.925 320.846 443.245 316.262H498.102C500.256 316.262 502 314.523 502 312.376C502 310.228 500.256 308.489 498.102 308.489Z" fill="#F9F8F8"/>
<path d="M331.988 384.656H307.071C307.071 382.862 308.529 381.407 310.329 381.407H328.732C330.529 381.407 331.988 382.862 331.988 384.656Z" fill="#F2F2F2"/>
<path d="M326.084 381.407H312.973L317.235 260.29L320.097 262.187L326.084 381.407Z" fill="#F2F2F2"/>
<path d="M330.133 384.656H305.216C305.216 382.862 306.674 381.407 308.474 381.407H326.877C328.674 381.407 330.133 382.862 330.133 384.656Z" fill="#F2F2F2"/>
<path d="M317.674 261.361L380.371 297.458L379.685 293.904C379.549 293.202 379.164 292.576 378.598 292.139L337.638 260.521C336.888 259.942 335.906 259.759 334.997 260.03L326.779 262.478C326.004 262.709 325.166 262.611 324.467 262.207L319.006 259.062L317.674 261.361Z" fill="#F2F2F2"/>
<path d="M316.345 259.064L253.648 295.161L257.071 296.345C257.75 296.58 258.494 296.56 259.16 296.287L307.086 276.727C307.968 276.368 308.623 275.606 308.844 274.68L310.824 266.373C311.011 265.585 311.518 264.908 312.222 264.501L317.677 261.361L316.345 259.064Z" fill="#F2F2F2"/>
<path d="M319.004 259.064V186.87L316.262 189.236C315.719 189.704 315.367 190.353 315.271 191.063L308.294 242.238C308.164 243.178 308.498 244.122 309.191 244.772L315.42 250.64C316.011 251.195 316.345 251.968 316.345 252.779V259.064H319.004Z" fill="#F2F2F2"/>
<path d="M323.692 381.407H311.659L315.919 260.29H319.431L323.692 381.407Z" fill="#F2F2F2"/>
<path d="M320.68 261.022C321.071 259.37 320.045 257.715 318.389 257.325C316.732 256.934 315.072 257.958 314.68 259.61C314.289 261.262 315.315 262.917 316.972 263.307C318.629 263.697 320.289 262.674 320.68 261.022Z" fill="#F2F2F2"/>
<path d="M317.465 262.911C319.017 262.911 320.276 261.656 320.276 260.108C320.276 258.56 319.017 257.305 317.465 257.305C315.913 257.305 314.654 258.56 314.654 260.108C314.654 261.656 315.913 262.911 317.465 262.911Z" fill="#F2F2F2"/>
<path d="M254.759 295.545L314.654 260.108L314.601 260.068L253.648 295.161L254.759 295.545Z" fill="#F2F2F2"/>
<path d="M323.692 380.621H311.685V381.407H323.692V380.621Z" fill="#F2F2F2"/>
<path d="M318.115 187.639L318.939 257.574L319.004 257.547V186.87L318.115 187.639Z" fill="#F2F2F2"/>
<path d="M380.15 296.305L319.427 262.298L319.418 262.365L380.371 297.458L380.15 296.305Z" fill="#F2F2F2"/>
<path d="M413.847 384.656H373.957C373.957 381.785 376.291 379.455 379.173 379.455H408.633C411.513 379.455 413.847 381.782 413.847 384.656Z" fill="#ECECEC"/>
<path d="M404.4 379.455H383.406L390.228 185.549L394.814 188.589L404.4 379.455Z" fill="#ECECEC"/>
<path d="M410.881 384.656H370.99C370.99 381.785 373.324 379.455 376.206 379.455H405.667C408.544 379.455 410.881 381.782 410.881 384.656Z" fill="#F2F2F2"/>
<path d="M390.934 187.263L491.31 245.055L490.087 238.714C489.951 238.012 489.564 237.383 488.998 236.946L422.179 185.364C421.428 184.785 420.444 184.603 419.535 184.874L404.783 189.269C404.008 189.5 403.17 189.402 402.469 188.998L393.068 183.585L390.934 187.263Z" fill="#F2F2F2"/>
<path d="M388.805 183.585L288.43 241.374L294.548 243.489C295.225 243.722 295.966 243.702 296.63 243.431L376.233 210.943L380.435 193.307L390.936 187.261L388.805 183.585Z" fill="#F2F2F2"/>
<path d="M393.061 183.585V68.0053L388.166 72.2295C387.622 72.6982 387.271 73.3489 387.173 74.0574L375.79 157.549C375.66 158.489 375.997 159.433 376.687 160.086L387.876 170.624C388.467 171.179 388.801 171.954 388.801 172.763V183.585H393.061Z" fill="#F2F2F2"/>
<path d="M400.567 379.455H381.302L388.123 185.549H393.745L400.567 379.455Z" fill="#F2F2F2"/>
<path d="M395.501 187.426C396.544 184.916 395.348 182.039 392.831 180.999C390.314 179.959 387.428 181.151 386.386 183.661C385.343 186.171 386.538 189.049 389.055 190.089C391.573 191.129 394.458 189.937 395.501 187.426Z" fill="#ECECEC"/>
<path d="M394.764 186.972C395.715 184.683 394.625 182.058 392.33 181.11C390.034 180.162 387.402 181.249 386.451 183.538C385.5 185.827 386.591 188.452 388.886 189.4C391.182 190.348 393.813 189.261 394.764 186.972Z" fill="#F2F2F2"/>
<path d="M290.209 241.992L386.099 185.26L386.014 185.193L288.43 241.377L290.209 241.992Z" fill="#ECECEC"/>
<path d="M400.569 378.196H381.346V379.455H400.569V378.196Z" fill="#ECECEC"/>
<path d="M391.64 69.2379L392.961 181.2L393.061 181.16V68.0053L391.64 69.2379Z" fill="#ECECEC"/>
<path d="M490.953 243.209L393.74 188.765L393.727 188.871L491.31 245.055L490.953 243.209Z" fill="#ECECEC"/>
<path d="M94.3511 290.773C81.5071 290.773 70.9972 280.292 70.9972 267.484V213.877C70.9972 201.069 81.5071 190.588 94.3511 190.588C107.195 190.588 117.705 201.069 117.705 213.877V267.484C117.703 280.292 107.195 290.773 94.3511 290.773Z" fill="#F2F2F2"/>
<path d="M95.6251 384.772H93.0773V227.838C93.0773 227.136 93.6474 226.567 94.3512 226.567C95.055 226.567 95.6251 227.136 95.6251 227.838V384.772Z" fill="#E4E4E4"/>
<path d="M95.6251 249.108L88.5405 236.87C88.1886 236.262 87.4091 236.055 86.8011 236.406C86.1909 236.757 85.9838 237.534 86.3357 238.141L93.4202 250.378L95.6251 249.108Z" fill="#E4E4E4"/>
<path d="M95.2821 263.744L102.367 251.506C102.719 250.898 102.509 250.123 101.901 249.772C101.291 249.421 100.514 249.63 100.162 250.236L93.0773 262.473L95.2821 263.744Z" fill="#E4E4E4"/>
<path d="M153.985 265.265C137.676 265.265 124.331 251.957 124.331 235.693V167.621C124.331 151.357 137.676 138.049 153.985 138.049C170.295 138.049 183.64 151.357 183.64 167.621V235.693C183.64 251.957 170.295 265.265 153.985 265.265Z" fill="#F2F2F2"/>
<path d="M155.602 384.63H152.366V185.347C152.366 184.456 153.09 183.734 153.983 183.734C154.876 183.734 155.6 184.456 155.6 185.347V384.63H155.602Z" fill="#E4E4E4"/>
<path d="M155.602 212.356L146.607 196.818C146.159 196.047 145.17 195.783 144.397 196.227C143.625 196.673 143.36 197.66 143.805 198.43L152.801 213.968L155.602 212.356Z" fill="#E4E4E4"/>
<path d="M155.17 230.943L164.166 215.405C164.613 214.634 164.348 213.646 163.573 213.202C162.8 212.755 161.809 213.02 161.364 213.793L152.368 229.33L155.17 230.943Z" fill="#E4E4E4"/>
<path d="M108.756 375.964C110.117 374.689 110.738 373.232 110.202 372.208C109.538 370.94 107.315 370.744 104.943 371.637C105.064 371.328 105.177 371.011 105.28 370.684C106.545 366.658 105.821 362.849 103.667 362.176C101.567 361.521 98.8788 364.086 97.5737 367.946C96.4935 363.524 93.7163 360.406 91.3355 360.966C89.0949 361.492 87.9969 365.09 88.7163 369.214C85.4335 367.768 82.2643 367.884 81.2554 369.627C80.2108 371.433 81.8389 374.362 84.9391 376.497C83.4692 376.987 82.458 377.887 82.3199 379.013C82.1507 380.397 83.34 381.762 85.2286 382.606C85.1239 382.875 85.095 383.146 85.1573 383.406C85.3533 384.241 86.4157 384.756 87.801 384.81V384.814H88.0081C88.0125 384.814 88.0192 384.814 88.0237 384.814H105.54V384.798C105.881 384.754 106.137 384.61 106.224 384.379C106.282 384.225 106.257 384.05 106.166 383.877C107.088 383.788 107.783 383.424 108.01 382.817C108.188 382.344 108.055 381.798 107.685 381.263C110.079 381.103 111.921 380.057 111.979 378.709C112.035 377.527 110.694 376.454 108.756 375.964Z" fill="#E4E4E4"/>
<path d="M145.631 368.539C148.134 366.194 149.277 363.515 148.29 361.63C147.07 359.295 142.981 358.938 138.618 360.581C138.841 360.015 139.048 359.431 139.237 358.829C141.562 351.424 140.235 344.419 136.27 343.18C132.406 341.974 127.467 346.694 125.066 353.79C123.077 345.657 117.972 339.924 113.596 340.95C109.476 341.916 107.456 348.535 108.781 356.119C102.743 353.461 96.9167 353.672 95.0614 356.879C93.1394 360.199 96.1327 365.587 101.836 369.514C99.1327 370.418 97.273 372.07 97.0191 374.142C96.7073 376.688 98.8966 379.199 102.369 380.75C102.177 381.245 102.126 381.742 102.237 382.222C102.6 383.757 104.549 384.705 107.101 384.805V384.814H107.482C107.491 384.814 107.502 384.814 107.511 384.814H139.727V384.785C140.355 384.703 140.825 384.439 140.983 384.014C141.09 383.73 141.043 383.41 140.878 383.088C142.573 382.924 143.849 382.255 144.268 381.141C144.596 380.272 144.351 379.266 143.671 378.28C148.077 377.987 151.46 376.061 151.569 373.585C151.662 371.411 149.195 369.438 145.631 368.539Z" fill="#F2F2F2"/>
<path d="M364.957 370.214C362.727 368.124 361.709 365.741 362.587 364.061C363.674 361.983 367.315 361.665 371.199 363.129C371.001 362.625 370.816 362.103 370.649 361.57C368.578 354.976 369.761 348.737 373.291 347.635C376.732 346.56 381.13 350.765 383.268 357.083C385.039 349.843 389.584 344.737 393.482 345.652C397.152 346.514 398.95 352.406 397.769 359.158C403.146 356.79 408.333 356.979 409.987 359.833C411.698 362.789 409.034 367.586 403.954 371.084C406.362 371.888 408.016 373.361 408.244 375.206C408.522 377.474 406.573 379.708 403.482 381.089C403.653 381.529 403.698 381.973 403.598 382.4C403.275 383.768 401.538 384.612 399.268 384.701V384.71H398.93C398.921 384.71 398.912 384.71 398.903 384.71H370.217V384.685C369.658 384.612 369.239 384.376 369.099 383.999C369.003 383.746 369.046 383.461 369.193 383.175C367.683 383.028 366.547 382.433 366.173 381.44C365.883 380.665 366.099 379.77 366.703 378.895C362.781 378.633 359.767 376.921 359.672 374.715C359.587 372.772 361.785 371.017 364.957 370.214Z" fill="#EAEAEA"/>
<path d="M398.11 378.873C397.21 378.029 396.798 377.065 397.152 376.388C397.591 375.548 399.063 375.419 400.631 376.01C400.551 375.806 400.475 375.595 400.408 375.379C399.571 372.714 400.05 370.196 401.475 369.749C402.865 369.316 404.642 371.013 405.506 373.567C406.221 370.642 408.059 368.579 409.633 368.948C411.117 369.296 411.843 371.677 411.366 374.404C413.538 373.447 415.636 373.525 416.301 374.678C416.992 375.873 415.916 377.811 413.865 379.224C414.838 379.548 415.506 380.143 415.598 380.89C415.709 381.805 414.923 382.709 413.673 383.266C413.742 383.444 413.76 383.624 413.72 383.795C413.591 384.348 412.887 384.687 411.97 384.723V384.725H411.834C411.829 384.725 411.827 384.725 411.823 384.725H400.233V384.714C400.008 384.685 399.838 384.59 399.78 384.436C399.743 384.334 399.758 384.219 399.818 384.103C399.208 384.043 398.749 383.804 398.598 383.402C398.48 383.088 398.569 382.726 398.812 382.373C397.226 382.267 396.01 381.576 395.97 380.683C395.941 379.906 396.829 379.197 398.11 378.873Z" fill="#E4E4E4"/>
<path d="M256.86 371.053C254.759 369.083 253.799 366.838 254.628 365.254C255.652 363.295 259.085 362.995 262.746 364.375C262.559 363.899 262.385 363.409 262.227 362.904C260.276 356.69 261.39 350.809 264.717 349.77C267.96 348.757 272.107 352.719 274.122 358.676C275.79 351.851 280.075 347.038 283.75 347.9C287.209 348.71 288.904 354.265 287.792 360.63C292.861 358.398 297.75 358.576 299.309 361.268C300.922 364.053 298.409 368.577 293.623 371.873C295.893 372.632 297.454 374.018 297.665 375.759C297.928 377.896 296.091 380.003 293.175 381.305C293.338 381.72 293.38 382.138 293.285 382.54C292.982 383.828 291.345 384.623 289.202 384.707V384.714H288.884C288.875 384.714 288.868 384.714 288.859 384.714H261.819V384.69C261.292 384.621 260.9 384.399 260.766 384.043C260.677 383.806 260.715 383.537 260.855 383.266C259.432 383.128 258.361 382.566 258.009 381.631C257.735 380.901 257.94 380.059 258.51 379.231C254.813 378.984 251.971 377.369 251.882 375.291C251.797 373.463 253.869 371.808 256.86 371.053Z" fill="#F2F2F2"/>
<path d="M287.26 376.976C286.071 375.861 285.528 374.589 285.995 373.691C286.577 372.581 288.519 372.412 290.594 373.194C290.487 372.925 290.389 372.648 290.3 372.361C289.196 368.841 289.826 365.51 291.71 364.921C293.548 364.348 295.895 366.591 297.037 369.965C297.982 366.098 300.409 363.373 302.492 363.862C304.452 364.321 305.412 367.466 304.781 371.073C307.652 369.809 310.423 369.909 311.305 371.433C312.218 373.012 310.795 375.573 308.084 377.44C309.369 377.869 310.253 378.655 310.374 379.641C310.523 380.852 309.481 382.044 307.83 382.782C307.922 383.017 307.946 383.253 307.893 383.481C307.721 384.212 306.792 384.663 305.581 384.71V384.714H305.4C305.396 384.714 305.392 384.714 305.387 384.714H290.071V384.701C289.773 384.661 289.55 384.536 289.474 384.334C289.423 384.199 289.445 384.048 289.523 383.895C288.717 383.817 288.111 383.499 287.911 382.968C287.755 382.555 287.873 382.078 288.193 381.609C286.1 381.469 284.49 380.554 284.438 379.377C284.392 378.342 285.565 377.405 287.26 376.976Z" fill="#E4E4E4"/>
<path d="M302.659 192.891C302.467 192.891 302.282 192.92 302.111 192.973C302.118 192.882 302.12 192.791 302.12 192.698C302.12 190.57 300.389 188.845 298.256 188.845C296.485 188.845 294.993 190.033 294.536 191.652C294.32 191.592 294.091 191.559 293.855 191.559C292.472 191.559 291.352 192.676 291.352 194.055C291.352 195.434 292.472 196.551 293.855 196.551C293.899 196.551 293.942 196.549 293.986 196.547V196.554H302.661C303.674 196.554 304.496 195.734 304.496 194.723C304.494 193.711 303.672 192.891 302.659 192.891Z" fill="#F2F2F2"/>
<path d="M235.19 150.806C234.145 150.806 233.167 151.095 232.332 151.593C231.468 147.864 228.118 145.083 224.116 145.083C223.764 145.083 223.417 145.108 223.076 145.15C221.212 141.005 217.038 138.12 212.19 138.12C205.602 138.12 200.263 143.446 200.263 150.014C200.263 150.085 200.266 150.154 200.266 150.225C199.468 149.849 198.577 149.636 197.638 149.636C194.239 149.636 191.484 152.383 191.484 155.773C191.484 159.162 194.239 161.907 197.638 161.907H235.19C238.263 161.907 240.755 159.422 240.755 156.357C240.755 153.292 238.263 150.806 235.19 150.806Z" fill="#F2F2F2"/>
<path d="M177.956 282.975C178.644 282.975 179.286 283.164 179.836 283.492C180.404 281.04 182.606 279.21 185.241 279.21C185.473 279.21 185.7 279.226 185.925 279.255C187.152 276.53 189.896 274.631 193.087 274.631C197.421 274.631 200.934 278.133 200.934 282.455C200.934 282.502 200.934 282.546 200.931 282.593C201.455 282.346 202.043 282.206 202.66 282.206C204.896 282.206 206.706 284.014 206.706 286.242C206.706 288.472 204.894 290.277 202.66 290.277H177.956C175.934 290.277 174.295 288.643 174.295 286.626C174.295 284.609 175.934 282.975 177.956 282.975Z" fill="#F2F2F2"/>
<path d="M423.655 362.856L423.597 363.078C423.591 363.102 423.439 363.673 423.063 364.381C422.713 365.039 422.098 365.938 421.145 366.5C420.192 367.062 419.103 367.164 418.357 367.151C417.555 367.138 416.981 366.993 416.956 366.987L416.733 366.931L416.791 366.709C416.798 366.685 416.949 366.114 417.326 365.405C417.675 364.748 418.29 363.848 419.243 363.287C420.197 362.725 421.286 362.623 422.032 362.636C422.833 362.649 423.408 362.794 423.433 362.8L423.655 362.856ZM417.306 366.591C417.914 366.698 419.582 366.891 420.916 366.107C422.25 365.321 422.887 363.775 423.087 363.191C422.479 363.084 420.811 362.891 419.477 363.675C418.141 364.461 417.504 366.009 417.306 366.591Z" fill="#E4E4E4"/>
<path d="M420.475 368.168C418.355 368.966 415.994 367.911 415.994 367.911C415.994 367.911 417.07 365.563 419.188 364.766C421.308 363.968 423.669 365.023 423.669 365.023C423.669 365.023 422.595 367.373 420.475 368.168Z" fill="#F2F2F2"/>
<path d="M415.94 337.464L415.938 337.748C415.938 337.779 415.927 338.514 415.689 339.48C415.468 340.377 414.998 341.65 414.018 342.616C413.039 343.582 411.756 344.033 410.852 344.242C409.88 344.466 409.141 344.468 409.11 344.468H408.825L408.827 344.184C408.827 344.153 408.838 343.418 409.076 342.452C409.297 341.554 409.767 340.282 410.747 339.316C411.727 338.35 413.01 337.899 413.914 337.69C414.885 337.466 415.624 337.464 415.655 337.464H415.94ZM409.413 343.889C410.181 343.833 412.25 343.562 413.62 342.214C414.992 340.864 415.29 338.805 415.355 338.041C414.586 338.096 412.517 338.367 411.148 339.716C409.776 341.068 409.477 343.125 409.413 343.889Z" fill="#E4E4E4"/>
<path d="M413.718 344.835C411.404 346.436 408.232 345.876 408.232 345.876C408.232 345.876 408.816 342.72 411.132 341.119C413.446 339.518 416.618 340.078 416.618 340.078C416.618 340.078 416.032 343.234 413.718 344.835Z" fill="#F2F2F2"/>
<path d="M121.992 330.01L122.173 330.163C122.193 330.181 122.658 330.581 123.15 331.249C123.607 331.871 124.17 332.851 124.264 333.992C124.357 335.134 123.961 336.191 123.611 336.879C123.235 337.619 122.841 338.09 122.823 338.11L122.669 338.292L122.489 338.139C122.469 338.121 122.003 337.721 121.511 337.053C121.055 336.431 120.491 335.451 120.398 334.31C120.304 333.168 120.7 332.111 121.05 331.423C121.427 330.683 121.821 330.212 121.839 330.192L121.992 330.01ZM122.614 337.606C122.99 337.088 123.923 335.622 123.792 334.03C123.66 332.433 122.502 331.143 122.048 330.692C121.671 331.209 120.738 332.675 120.87 334.268C121.001 335.867 122.159 337.157 122.614 337.606Z" fill="#E4E4E4"/>
<path d="M125.525 335.371C125.311 337.703 123.257 339.422 123.257 339.422C123.257 339.422 121.549 337.361 121.763 335.029C121.977 332.697 124.03 330.978 124.03 330.978C124.03 330.978 125.736 333.039 125.525 335.371Z" fill="#F2F2F2"/>
<path d="M76.9281 356.943L77.1285 356.93C77.1508 356.928 77.6653 356.897 78.3557 357.012C78.9971 357.119 79.9125 357.379 80.6408 358.009C81.369 358.64 81.7521 359.511 81.9481 360.128C82.1575 360.792 82.1975 361.308 82.1975 361.33L82.2131 361.527L82.0127 361.541C81.9904 361.543 81.4759 361.574 80.7855 361.459C80.1441 361.352 79.2287 361.092 78.5005 360.461C77.7722 359.831 77.3891 358.96 77.1931 358.343C76.9838 357.679 76.9437 357.163 76.9437 357.141L76.9281 356.943ZM81.7744 361.15C81.6964 360.619 81.3958 359.191 80.378 358.307C79.3579 357.423 77.9014 357.325 77.3624 357.321C77.4403 357.852 77.741 359.28 78.7588 360.164C79.7789 361.048 81.2354 361.145 81.7744 361.15Z" fill="#E4E4E4"/>
<path d="M82.2086 358.103C83.4536 359.631 83.2287 361.867 83.2287 361.867C83.2287 361.867 80.9859 361.627 79.7432 360.099C78.5004 358.571 78.7231 356.335 78.7231 356.335C78.7231 356.335 80.9637 356.575 82.2086 358.103Z" fill="#F2F2F2"/>
<path d="M356.182 350.88L356.407 350.874C356.431 350.874 357.01 350.86 357.778 351.02C358.491 351.169 359.507 351.502 360.295 352.244C361.081 352.986 361.473 353.978 361.663 354.68C361.868 355.435 361.888 356.013 361.888 356.037L361.894 356.262L361.669 356.268C361.645 356.268 361.066 356.282 360.297 356.122C359.585 355.973 358.569 355.64 357.781 354.898C356.995 354.156 356.603 353.163 356.413 352.462C356.208 351.706 356.188 351.129 356.188 351.105L356.182 350.88ZM361.424 355.817C361.36 355.218 361.088 353.603 359.99 352.568C358.888 351.531 357.257 351.353 356.654 351.324C356.718 351.924 356.99 353.539 358.088 354.574C359.191 355.611 360.821 355.789 361.424 355.817Z" fill="#E4E4E4"/>
<path d="M362.05 352.419C363.375 354.189 363.021 356.688 363.021 356.688C363.021 356.688 360.518 356.317 359.193 354.547C357.868 352.777 358.222 350.278 358.222 350.278C358.222 350.278 360.725 350.649 362.05 352.419Z" fill="#F2F2F2"/>
<path opacity="0.4" d="M20.956 317.28V283.608L98.06 173.32H144.664V281.168H164.672V317.28H144.664V349H102.94V317.28H20.956ZM105.868 219.192L64.876 281.168H105.868V219.192ZM185.109 257.5C185.109 229.521 190.477 207.48 201.213 191.376C212.112 175.272 229.598 167.22 253.673 167.22C277.748 167.22 295.153 175.272 305.889 191.376C316.788 207.48 322.237 229.521 322.237 257.5C322.237 285.804 316.788 308.008 305.889 324.112C295.153 340.216 277.748 348.268 253.673 348.268C229.598 348.268 212.112 340.216 201.213 324.112C190.477 308.008 185.109 285.804 185.109 257.5ZM281.245 257.5C281.245 241.071 279.456 228.464 275.877 219.68C272.298 210.733 264.897 206.26 253.673 206.26C242.449 206.26 235.048 210.733 231.469 219.68C227.89 228.464 226.101 241.071 226.101 257.5C226.101 268.561 226.752 277.752 228.053 285.072C229.354 292.229 231.957 298.085 235.861 302.64C239.928 307.032 245.865 309.228 253.673 309.228C261.481 309.228 267.337 307.032 271.241 302.64C275.308 298.085 277.992 292.229 279.293 285.072C280.594 277.752 281.245 268.561 281.245 257.5ZM345.257 317.28V283.608L422.361 173.32H468.965V281.168H488.973V317.28H468.965V349H427.241V317.28H345.257ZM430.169 219.192L389.177 281.168H430.169V219.192Z" fill="#0466C8"/>
<path d="M244.19 214.759C244.19 214.759 247.46 213.23 245.659 193.947C245.813 173.483 244.279 162.334 261.28 160.194C276.289 160.805 281.19 168.135 281.498 172.261C281.806 176.387 281.806 176.383 281.806 176.383C281.806 176.383 280.326 196.137 280.531 196.748C280.735 197.359 280.939 206.114 280.939 206.114C280.939 206.114 281.247 213.037 280.018 215.073C278.793 217.109 276.956 219.756 275.627 220.367C274.298 220.978 272.564 221.896 272.564 221.896C272.564 221.896 275.319 230.74 274.122 235.231C273.302 238.296 243.169 235.641 244.19 214.759Z" fill="#FADED6"/>
<path d="M199.392 394.949C205.352 397.828 212.638 400.796 221.153 403.19C232.036 406.244 241.768 407.594 249.635 408.026C246.748 350.04 243.907 291.939 241.02 233.952L240.952 232.584C240.952 232.584 238.501 228.508 238.774 224.436C239.046 220.36 238.229 217.374 238.229 217.374C238.229 217.374 202.544 241.821 201.727 243.179C200.914 244.536 201.029 391.687 199.392 394.949Z" fill="#FFDE7D"/>
<path d="M96.1761 360.117C96.1761 360.117 96.1152 360.677 93.1134 363.378C91.6268 364.714 90.2584 366.161 86.576 367.757C85.0321 368.425 80.3359 372.208 79.6302 373.155C78.072 375.252 77.2123 376.07 73.5334 380.96C70.8934 384.472 64.1375 387.14 68.2892 380.796C69.5214 378.913 70.9901 377.17 72.466 375.473C73.4725 374.312 74.5114 373.176 75.5753 372.065C76.1412 371.472 76.718 370.887 77.3018 370.312C77.8714 369.751 78.706 369.172 79.1216 368.504C77.6636 368.661 76.2272 370.451 75.1633 371.362C73.3113 372.951 71.5274 374.612 69.7435 376.273C68.0778 377.827 66.5733 379.542 64.8539 381.035C64.0121 381.767 61.716 383.993 60.4264 383.139C58.5888 381.917 67.0677 369.49 73.6051 367.25C71.5346 367.961 69.7435 369.365 67.9166 370.533C65.6133 372.008 63.4067 373.659 61.4724 375.595C60.1219 376.949 58.0909 380.024 55.8628 378.431C54.7057 377.602 54.1147 375.491 55.218 374.38C56.855 372.748 58.5386 371.162 60.233 369.59C62.153 367.807 64.0838 365.971 66.1972 364.414C66.5053 364.189 66.8707 363.867 67.2432 363.767C67.0963 364.607 65.3339 365.185 64.7214 365.578C61.9488 367.368 59.1082 369.24 56.0813 370.654C54.7631 371.272 53.1797 372.105 51.7182 372.265C50.2352 372.426 49.1964 370.997 49.8806 369.672C50.6185 368.243 52.4526 367.275 53.8675 366.686C57.0055 365.378 60.3404 364.793 63.3387 363.131C66.122 361.592 68.7764 359.441 70.6427 356.852C69.4606 357.888 68.2462 358.891 67.0283 359.884C65.4271 361.188 63.7005 362.856 61.7948 363.71C61.6264 363.785 61.3399 363.971 61.1428 363.885C60.2222 363.478 55.0138 360.931 69.5179 348.707C69.5179 348.707 77.18 341.677 89.9468 344.735C105.977 348.571 96.1761 360.117 96.1761 360.117Z" fill="#FADED6"/>
<path d="M216.787 288.902C216.787 288.902 205.89 349.204 170.48 357.898C135.071 366.593 98.0244 363.332 98.0244 363.332C98.0244 363.332 86.0386 350.293 88.2166 339.97C90.3945 329.646 148.142 325.845 154.135 314.979C160.128 304.112 202.623 242.182 202.623 242.182C202.623 242.182 222.779 262.822 216.787 288.902Z" fill="#FFDE7D"/>
<path d="M281.057 184.624C290.277 184.078 383.42 172.564 383.42 172.564C383.42 172.564 385.645 200.431 383.263 200.249C380.877 200.066 281.057 188.736 281.057 188.736C279.714 188.261 278.929 187.403 279.03 186.521C279.169 185.31 280.892 184.681 281.057 184.624Z" fill="#001845"/>
<path d="M377.008 186.203C377.008 194.04 380.479 200.395 384.76 200.395C389.041 200.395 392.512 194.04 392.512 186.203C392.512 178.366 389.041 172.011 384.76 172.011C384.226 172.011 383.703 172.111 383.198 172.3C379.666 173.622 377.008 179.344 377.008 186.203Z" fill="#001845"/>
<path d="M384.738 197.298C387.999 197.298 390.642 192.267 390.642 186.06C390.642 179.853 387.999 174.822 384.738 174.822C381.478 174.822 378.835 179.853 378.835 186.06C378.835 192.267 381.478 197.298 384.738 197.298Z" fill="#0466C8"/>
<path d="M344.798 201.449C344.798 201.449 345.349 197.037 347.366 184.985C349.838 170.218 343.189 166.12 329.753 178.233C316.316 190.347 334.979 206.457 334.979 206.457L344.798 201.449Z" fill="#FADED6"/>
<path d="M303.603 284.737C303.603 284.737 323.839 323.384 349.365 322.766C405.479 321.409 350.454 208.679 346.643 199.988C346.098 201.617 338.744 196.866 329.481 199.581C320.221 202.295 334.753 258.289 331.522 254.588C306.573 226.007 304.556 226.883 304.556 226.883L303.603 284.737Z" fill="#F4D370"/>
<path d="M245.719 221.989C245.719 221.989 250.215 234.62 272.686 235.434C273.911 227.693 271.998 222.274 271.998 222.274L275.444 218.32C275.444 218.32 289.235 220.356 289.848 246.637C290.46 272.917 297.779 402.404 297.779 402.404C289.121 405.072 276.472 407.958 263.505 408.223C260.127 408.291 256.892 408.316 253.754 408.201C250.398 345.896 247.038 283.473 243.678 221.171L245.719 221.989Z" fill="#36436C"/>
<path d="M248.309 234.756L241.023 233.952L249.638 408.026C250.541 408.08 251.462 408.126 252.393 408.166C253.69 408.219 254.958 408.251 256.201 408.269C253.568 350.432 250.939 292.596 248.309 234.756Z" fill="#0466C8"/>
<path d="M297.797 402.422C297.205 402.629 296.586 402.772 295.955 402.968C294.798 403.325 293.681 403.625 292.613 403.879C288.967 346.5 285.32 289.12 281.673 231.741L289.364 232.212L297.797 402.422Z" fill="#0466C8"/>
<path d="M269.283 213.569C269.283 213.569 312.322 222.26 312.867 237.474C313.411 252.684 319.891 393.53 319.891 393.53C317.043 394.838 313.93 396.427 309.671 398.131C305.81 399.678 303.148 400.843 297.797 402.429C297.797 402.429 289.697 238.767 289.443 235.299C288.974 228.994 286.036 224.028 269.283 213.569Z" fill="#FFDE7D"/>
<path d="M244.086 214.655L248.309 234.756C248.309 234.756 242.42 235.134 241.023 233.952C238.931 232.176 237.348 222.55 238.233 217.374C238.652 214.912 244.086 214.655 244.086 214.655Z" fill="#0466C8"/>
<path d="M288.945 232.216C285.205 216.602 278.342 217.12 274.935 216.084C271.894 215.159 266.356 214.659 270.848 218.324C275.344 221.992 281.677 231.769 281.677 231.769" fill="#0466C8"/>
<path d="M245.393 194.39C245.393 194.39 248.764 194.697 249.173 194.594C249.581 194.49 246.619 187.875 248.968 187.671C251.318 187.467 252.952 188.282 252.543 193.272C252.135 198.262 252.851 210.122 254.84 212.873C256.831 215.623 259.253 224.003 272.002 222.278C275.003 221.871 275.623 220.849 276.519 219.949C281.15 215.291 283.171 217.098 280.416 198.67C279.599 197.752 273.166 192.154 264.694 202.846C261.631 205.596 256.014 205.9 255.81 200.606C255.606 195.312 255.402 183.499 255.402 183.499C255.402 183.499 259.181 174.743 256.323 172.096C253.464 169.45 247.339 168.431 247.339 168.431C247.339 168.431 246.239 169.457 245.676 178.191C245.433 181.873 245.365 188.321 245.393 194.39Z" fill="#2A3952"/>
<path d="M275.333 407.308L272.213 235.288L272.686 235.309L275.842 407.244L275.333 407.308Z" fill="#FFDE7D"/>
<path d="M245.777 176.565C245.777 176.565 245.612 164.988 252.78 162.18C260.385 159.201 270.214 158.694 278.815 165.999C278.815 165.999 280.918 168.474 281.681 171.028C281.842 171.571 282.182 175.847 282.182 175.847C277.353 176.851 271.067 177.719 264.39 177.908C262.083 177.976 259.865 177.958 257.748 177.876C253.271 177.705 249.259 177.251 245.773 176.687" fill="#FFDE7D"/>
<path d="M292.828 178.062L260.818 177.755C260.818 177.755 271.615 177.83 282.182 175.847C292.366 175.772 293.899 173.94 294.816 175.161C295.737 176.383 292.828 178.062 292.828 178.062Z" fill="#FFDE7D"/>
</g>
<defs>
<clipPath id="clip0_85_889">
<rect width="502" height="386" fill="white"/>
</clipPath>
</defs>
</svg>
